<?xml version="1.0" standalone="no"?><!DOCTYPE svg PUBLIC "-//W3C//DTD SVG 1.1//EN" "http://www.w3.org/Graphics/SVG/1.1/DTD/svg11.dtd"><svg t="1707288910443" class="icon" viewBox="0 0 1024 1024" version="1.1" xmlns="http://www.w3.org/2000/svg" p-id="4292" xmlns:xlink="http://www.w3.org/1999/xlink" width="200" height="200"><path d="M568.45 889.77a416.11 416.11 0 0 1-154.35-29.43A406.85 406.85 0 0 1 276.41 770a413.7 413.7 0 0 1-0.57-586.05 417.29 417.29 0 0 1 54.69-46 25 25 0 0 1 39.38 19.48A519.55 519.55 0 0 0 887.44 658l11.1 0.06a25 25 0 0 1 21.05 38.28 416 416 0 0 1-55.25 70 407 407 0 0 1-136.66 92.07A416.07 416.07 0 0 1 571 889.76zM323.79 207.26q-6.44 5.85-12.59 12a364 364 0 0 0 0.5 515.27c68.7 68.44 160.7 105.82 259 105.22s190-39.09 257.89-108.4q11.63-11.85 22.12-24.7A567.73 567.73 0 0 1 493.4 547.51C398.81 456 339.6 336.6 323.79 207.26z" p-id="4293" fill="#707070"></path></svg>